<?xml version="1.0" standalone="no"?>
<!DOCTYPE svg PUBLIC "-//W3C//DTD SVG 20010904//EN"
 "http://www.w3.org/TR/2001/REC-SVG-20010904/DTD/svg10.dtd">
<svg version="1.0" xmlns="http://www.w3.org/2000/svg"
 width="260.000000pt" height="260.000000pt" viewBox="0 0 260.000000 260.000000"
 preserveAspectRatio="xMidYMid meet">
<metadata>
Created by potrace 1.11, written by Peter Selinger 2001-2013
</metadata>
<g transform="translate(0.000000,260.000000) scale(0.100000,-0.100000)"
fill="#000000" stroke="none">
<path d="M15 1812 c-1 -2 56 -148 127 -325 72 -177 168 -414 214 -527 l82
-205 89 -3 88 -3 90 220 c50 120 92 217 96 216 3 -2 45 -101 93 -219 l89 -216
87 0 88 0 33 83 c18 45 39 93 46 107 7 14 13 30 13 36 0 6 6 24 14 40 14 29
62 145 236 576 56 137 84 218 77 220 -7 2 -57 4 -112 4 l-99 -1 -148 -405
c-81 -223 -149 -409 -151 -414 -1 -5 -33 68 -70 162 l-67 170 41 108 c23 60
52 138 65 174 12 36 34 95 48 133 29 77 38 70 -84 68 -41 -1 -78 -5 -81 -9 -4
-4 -30 -77 -59 -162 -29 -85 -55 -158 -59 -162 -4 -4 -24 45 -45 110 -21 64
-47 141 -58 170 l-19 52 -96 0 c-87 0 -95 -2 -88 -17 8 -22 56 -151 123 -332
l49 -134 -34 -86 c-19 -47 -48 -123 -65 -169 -17 -45 -32 -81 -33 -80 -2 2
-35 93 -75 203 -40 110 -78 214 -85 230 -7 17 -25 66 -40 110 -15 44 -31 85
-35 90 -3 6 -19 49 -35 98 -16 48 -33 88 -39 88 -28 3 -208 4 -211 1z"/>
<path d="M1700 1284 l0 -535 323 3 322 3 55 26 c111 52 159 127 160 249 0 58
-6 86 -24 126 -24 52 -94 121 -132 130 -19 5 -16 10 32 58 87 88 106 202 53
325 -26 61 -95 126 -148 141 -20 6 -166 10 -338 10 l-303 0 0 -536z m566 312
c30 -30 34 -40 34 -89 0 -45 -5 -61 -26 -86 -35 -42 -77 -51 -231 -51 l-133 0
0 130 0 130 161 0 161 0 34 -34z m35 -435 c26 -26 39 -48 40 -67 3 -79 -11
-112 -64 -144 -28 -18 -51 -20 -199 -20 l-168 0 0 135 0 135 176 0 176 0 39
-39z"/>
</g>
</svg>
